<svg xmlns="http://www.w3.org/2000/svg" 
     version="1.1" 
     xmlns:xlink="http://www.w3.org/1999/xlink" 
     xmlns:svgjs="http://svgjs.dev/svgjs" 
     width="102" 
     height="88.48" 
     viewBox="0 0 1500 1715">
    
    
    
    <g transform="matrix(1,0,0,1,-0.02204249121268731,0.6943319838056823)"><svg viewBox="0 0 216 247" data-background-color="#ffffff" preserveAspectRatio="xMidYMid meet" height="1715" width="1500" xmlns="http://www.w3.org/2000/svg" xmlns:xlink="http://www.w3.org/1999/xlink"><g id="tight-bounds" transform="matrix(1,0,0,1,0.003174118734619924,-0.09999999999999432)"><svg viewBox="0 0 215.99365176253076 247.2" height="247.2" width="215.99365176253076"><g><svg viewBox="0 0 395.52000000000004 452.6639704554548" height="247.2" width="215.99365176253076"><g transform="matrix(1,0,0,1,0,296.40915564063994)"><svg viewBox="0 0 395.52000000000004 156.25481481481484" height="156.25481481481484" width="395.52000000000004"><g id="textblocktransform"><svg viewBox="0 0 395.52000000000004 156.25481481481484" height="156.25481481481484" width="395.52000000000004" id="textblock"><g><svg viewBox="0 0 395.52000000000004 156.25481481481484" height="156.25481481481484" width="395.52000000000004"><g transform="matrix(1,0,0,1,0,0)"><svg width="395.52000000000004" viewBox="1.12 -34.86 88.97999999999999 35.15" height="156.25481481481484" data-palette-color="#1ebbd7"><path d="M18.46-34.86L13.18 0 6.35 0 1.12-34.86 4.71-34.86 7.4-15.77 8.86-3.13 10.67-3.13 12.08-15.77 14.79-34.86 18.46-34.86ZM29.15 0.29L29.15 0.29Q25.12 0.29 23.4-0.98 21.68-2.25 21.56-5.13L21.56-5.13Q21.46-6.93 21.42-9.38 21.38-11.82 21.42-14.28 21.46-16.75 21.56-18.58L21.56-18.58Q21.68-21.53 23.45-22.8 25.22-24.07 29.15-24.07L29.15-24.07Q32.86-24.07 34.52-22.83 36.18-21.58 36.35-18.73L36.35-18.73Q36.4-17.87 36.45-15.75 36.5-13.62 36.3-11.23L36.3-11.23 24.61-11.23Q24.61-9.69 24.63-8.11 24.66-6.52 24.73-4.81L24.73-4.81Q24.75-3.47 25.75-2.95 26.76-2.44 29.05-2.44L29.05-2.44Q31.32-2.44 32.25-2.95 33.18-3.47 33.27-4.81L33.27-4.81Q33.35-6.15 33.27-8.47L33.27-8.47 36.3-8.47Q36.42-7.76 36.41-6.82 36.4-5.88 36.35-5.13L36.35-5.13Q36.18-2.25 34.6-0.98 33.03 0.29 29.15 0.29ZM24.61-13.82L24.61-13.82 33.32-13.82Q33.37-15.48 33.37-16.99 33.37-18.51 33.27-19.07L33.27-19.07Q33.18-20.29 32.22-20.81 31.27-21.34 29.15-21.34L29.15-21.34Q26.78-21.34 25.77-20.81 24.75-20.29 24.73-19.07L24.73-19.07Q24.66-17.65 24.62-16.36 24.58-15.06 24.61-13.82ZM43.67-19.19L43.67 0 40.52 0 40.52-23.75 43.67-23.75 43.67-21.53 44.36-21.53Q44.99-22.75 46.04-23.41 47.09-24.07 48.65-24.07L48.65-24.07Q51-24.07 52.13-22.84 53.27-21.61 53.27-18.58L53.27-18.58Q53.27-17.92 53.22-17.02 53.17-16.11 53.07-15.41L53.07-15.41 50.04-15.41Q50.09-15.65 50.1-16.26 50.12-16.87 50.13-17.48 50.14-18.09 50.14-18.31L50.14-18.31Q50.14-20.12 49.53-20.76 48.92-21.41 47.58-21.41L47.58-21.41Q44.72-21.41 43.67-19.19L43.67-19.19ZM62.25 0.29L62.25 0.29Q59.49 0.29 58.15-0.93 56.8-2.15 56.73-4.96L56.73-4.96Q56.63-6.96 56.6-9.35 56.56-11.74 56.6-14.21 56.63-16.67 56.73-18.82L56.73-18.82Q56.8-21.66 58.18-22.86 59.56-24.07 62.3-24.07L62.3-24.07Q64.32-24.07 65.48-23.45 66.64-22.83 67.5-21.53L67.5-21.53 68.13-21.53 68.13-31.69 71.26-31.69 71.26 0 68.13 0 68.13-2.25 67.42-2.25Q66.59-1.03 65.43-0.37 64.27 0.29 62.25 0.29ZM63.15-2.37L63.15-2.37Q66.84-2.37 68.13-4.59L68.13-4.59 68.13-19.19Q66.86-21.41 63.18-21.41L63.18-21.41Q61.47-21.41 60.7-20.86 59.93-20.31 59.9-19.09L59.9-19.09Q59.76-15.43 59.78-11.66 59.81-7.89 59.9-4.69L59.9-4.69Q59.95-3.49 60.7-2.93 61.44-2.37 63.15-2.37ZM81.36 0.27L81.36 0.27Q78.38 0.27 76.96-0.9 75.53-2.08 75.28-4.57L75.28-4.57Q75.26-5.05 75.22-5.54 75.19-6.03 75.23-6.49L75.23-6.49Q75.41-8.67 76.6-10.14 77.8-11.62 81.14-12.84L81.14-12.84Q82.51-13.33 84.02-13.72 85.54-14.11 87.03-14.48L87.03-14.48 87.03-18.99Q87.03-20.19 86.12-20.76 85.22-21.34 82.97-21.34L82.97-21.34Q81.02-21.34 80.01-20.85 78.99-20.36 78.9-19.07L78.9-19.07Q78.85-18.46 78.85-17.32 78.85-16.19 78.9-15.41L78.9-15.41 75.84-15.41Q75.8-16.02 75.75-16.99 75.7-17.97 75.77-18.73L75.77-18.73Q75.89-21.56 77.61-22.81 79.34-24.07 83.1-24.07L83.1-24.07Q87.03-24.07 88.55-22.71 90.08-21.34 90.1-18.21L90.1-18.21 90.1 0 87.03 0 87.03-2.25 86.34-2.25Q85.73-1.03 84.6-0.38 83.46 0.27 81.36 0.27ZM82.14-2.37L82.14-2.37Q85.66-2.37 87-4.47L87-4.47 87-11.87Q85.83-11.62 84.6-11.29 83.36-10.96 81.7-10.4L81.7-10.4Q79.73-9.67 79.07-8.72 78.41-7.76 78.31-6.49L78.31-6.49Q78.33-6.13 78.35-5.7 78.36-5.27 78.41-4.81L78.41-4.81Q78.58-3.64 79.58-3 80.58-2.37 82.14-2.37Z" opacity="1" transform="matrix(1,0,0,1,0,0)" fill="#1ebbd7" class="wordmark-text-0" data-fill-palette-color="primary" id="text-0"></path></svg></g></svg></g></svg></g></svg></g><g transform="matrix(1,0,0,1,86.44343384190229,0)"><svg viewBox="0 0 222.63313231619546 222.63313231619546" height="222.63313231619546" width="222.63313231619546"><g><svg></svg></g><g id="icon-0"><svg viewBox="0 0 222.63313231619546 222.63313231619546" height="222.63313231619546" width="222.63313231619546"><g><path d="M0 111.317c0-61.478 49.838-111.317 111.317-111.317 61.478 0 111.317 49.838 111.316 111.317 0 61.478-49.838 111.317-111.316 111.316-61.478 0-111.317-49.838-111.317-111.316zM111.317 208.542c53.696 0 97.225-43.529 97.225-97.225 0-53.696-43.529-97.225-97.225-97.226-53.696 0-97.225 43.529-97.226 97.226 0 53.696 43.529 97.225 97.226 97.225z" data-fill-palette-color="tertiary" fill="#1ebbd7" stroke="transparent"></path></g><g transform="matrix(1,0,0,1,85.39785541056158,51.20981851774149)"><svg viewBox="0 0 51.83742149507231 120.21349528071248" height="120.21349528071248" width="51.83742149507231"><g><svg xmlns="http://www.w3.org/2000/svg" xml:space="preserve" viewBox="26.980910197094364 0.30799999999999983 39.10828059774741 90.69399999999999" id="dxe-0" width="51.83742149507231" height="120.21349528071248" x="0" y="0" class="icon-dxe-0" data-fill-palette-color="accent"><path d="M64.895 65.47c2.539-8.376 0.975-16.048-4.174-23.881-5.531-8.44-15.586-11.561-22.23-18.633-6.437-6.856-4.475-19.001 0.874-22.648-7.78 2.432-15.298 15.011-10.213 29.42 2.746 7.771 9.551 12.203 14.996 19.157 4.813 6.136 8.78 12.543 8.575 20.29-0.196 7.484-4.214 15.096-8.525 21.041 3.918-3.109 6.696-4.911 10.001-8.212 3.885-3.894 8.265-8.512 10.696-16.534" fill="#1ebbd7" data-fill-palette-color="accent"></path><path d="M48.85 74.461c0.592-5.918-3.168-11.469-7.871-15.272-3.269-2.643-7.855-4.546-9.526-8.692-1.676-4.165-0.115-9.097 1.837-11.771-2.436 1.457-4.295 3.993-5.464 7.365-2.764 7.941 1.57 14.029 8.379 20.598 2.799 2.697 5.064 4.666 6.375 8.463 2.483 5.375-0.054 10.984-1.998 15.85 5.343-5.325 7.532-9.244 8.268-16.541" fill="#1ebbd7" data-fill-palette-color="accent"></path></svg></g></svg></g></svg></g></svg></g><g></g></svg></g><defs></defs></svg><rect width="215.99365176253076" height="247.2" fill="none" stroke="none" visibility="hidden"></rect></g></svg></g></svg>